<svg xmlns="http://www.w3.org/2000/svg" width="200" height="200" viewBox="0 0 200 200">
  <path d="m176.8 113.1c-2.93-5.62-7.97-10.05-15.64-10.05-7.24 0-11.07 3.93-13.2 7.31-5.82 9.34-19.13 13.42-33.49 13.42-8.58 0-15.94-1.73-21.17-6.1-6.13-5.08-8.78-13.32-8.56-21.81 0.47-16.18 11.49-35.89 24.18-35.89 1.15 0 1.44 0.55 1.61 0.91 0.83 1.94-1.08 5.53-2.49 7.81-4.19 6.7-4.01 15.4 0.82 22.28 4.4 6.32 11.27 8.85 19.21 8.36 19.17-1.22 38.26-18.74 42.62-40.53 3.65-17.58-4.47-42.63-31.45-49.87-7.5-2.28-14.55-2.59-20.43-2.46-45.57 0.35-74.08 34.68-86.08 61.56-8.87 20.49-12.31 40.29-11.56 57.01 1.62 28.69 19.11 62.53 61.86 68.01 3.33 0.41 6.68 0.53 9.98 0.39 35.99-1.4 62.54-24.53 83.22-61.02 3.81-6.71 2.92-14.43 0.57-19.33z" fill="#F2A23A" />
  <path d="m166.9 113.3c-3.37-5.14-9.47-4.3-11.75 0.2-7.41 11.47-21.74 17.48-41.95 17.48-20.27 0-39.08-9.16-39.21-37.31-0.09-19.27 12.64-47.71 35.12-47.71 9.32 0 13.03 6.16 12.22 14.04-0.62 5.92-3.52 6.95-5 13.05-1.7 7.15 2.61 12.23 11.61 12.23 15.13 0 31.03-17.11 32.39-34.05 1.68-22.06-13.13-37.83-41.48-38.57-40.91-1.14-68.46 32.19-79.85 62.52-6.47 18.05-8.66 32.73-7 48.49 3.8 30.18 24.73 54.42 57.98 54.92 29.19-0.5 55.09-18.4 76.96-55.46 1.86-3.3 1.86-6.98-0.04-9.83z" fill="#EE7930" />
</svg>